<svg xmlns="http://www.w3.org/2000/svg" width="60" height="122" fill="none" viewBox="0 0 60 122"><path fill="#0468b1" d="M29.07 61.73H.03v29.04h29.04z"/><path fill="#fff" d="M7.4 66.49v11.42c0 6 3 8.29 7 8.29 4.2 0 7.33-2.42 7.33-8.38V66.49h-2.57V78c0 4.26-1.87 6.16-4.71 6.16-2.6 0-4.52-1.85-4.52-6.16V66.49z"/><path fill="#0468b1" d="M59.9 61.73H30.86v29.04H59.9z"/><path fill="#fff" d="M40.46 86v-8.33c0-3.23 0-5.56-.17-8h.09A57 57 0 0 0 44 76.11L50.13 86h2.53V66.56h-2.35v8.14c0 3 0 5.35.28 7.94h-.09c-1-2.18-2.152-4.284-3.45-6.3l-6.18-9.81h-2.76V86z"/><path fill="#0468b1" d="M59.9 92.55H30.86v29.04H59.9z"/><path fill="#fff" d="M50.29 98.79c-1.16-1-3-1.61-5.44-1.61a26 26 0 0 0-4.81.4v19.13h2.5V109a9 9 0 0 0 2 .17 8 8 0 0 0 5.94-2.17 5.6 5.6 0 0 0 1.52-4.16 5.22 5.22 0 0 0-1.72-4"/><path fill="#0468b1" d="M44.62 107.22a8.8 8.8 0 0 1-2.08-.2v-7.54q1.172-.204 2.36-.2c2.76 0 4.58 1.23 4.58 3.83s-1.82 4.11-4.86 4.11M29.04 92.58H0v29.04h29.04z"/><path fill="#fff" d="M20.42 99.54c-1.7-1.58-4.26-2.39-7.85-2.39a37 37 0 0 0-5.36.4v19.08c1.52.171 3.05.244 4.58.22 3.77 0 6.76-1 8.6-2.78a10.4 10.4 0 0 0 2.79-7.54 8.92 8.92 0 0 0-2.76-7"/><path fill="#0468b1" d="M12.28 114.85a15.5 15.5 0 0 1-2.53-.12V99.4a13.8 13.8 0 0 1 2.93-.26c5.29 0 7.89 2.85 7.86 7.48 0 5.23-2.91 8.25-8.26 8.23M59.93 0H.03v59.91h59.9z"/><path fill="#fff" d="M51.41 31.19c-.84 1.19-1.85 2.3-2.63 3.51a6.7 6.7 0 0 0-.17-3.05 26 26 0 0 1-1.39-6.09v-.82c.49 2.2 2.65 3.71 2.51 6.17a5.3 5.3 0 0 1-.24 1.62l.1-.11a24 24 0 0 1 1-3.6c.7-1.62 1.58-3.25 1.23-5.21a8.85 8.85 0 0 1-.43 7.54"/><path fill="#fff" d="M50.08 18.76a7.46 7.46 0 0 1 .7 7.16 12.8 12.8 0 0 0-.8 3c-.08-.18-.09-.42-.16-.62-.56-2.14-2.59-3.68-3.43-5.7a10.5 10.5 0 0 1-.61-2.07c.89 1.65 3.09 2.5 3.69 4.32a7.4 7.4 0 0 1 .38 1.54.07.07 0 0 0 .07-.06A20.8 20.8 0 0 1 50 20.6a4.62 4.62 0 0 0-.67-2.75c.36.2.52.6.76.91"/><path fill="#fff" d="M49.09 18.4c.37 1.67-.17 3.31.17 5-.91-1.8-2.85-2.64-4.18-4.08a5.65 5.65 0 0 1-1.3-3c.76 1.84 2.82 2.25 4 3.79.324.38.587.809.78 1.27a33 33 0 0 1-1.37-4.64A3.75 3.75 0 0 0 45.87 15a4.66 4.66 0 0 1 3.22 3.43"/><path fill="#fff" d="M44.94 14.55a7 7 0 0 1 2 3.81l.19.44a16.7 16.7 0 0 1-4.32-4.59l-1.33-1.34a11 11 0 0 1 3.42 1.68m-22.17-1.3A16.8 16.8 0 0 1 30 11.53a16 16 0 0 1 14.38 9.11 15.82 15.82 0 0 1 1 11.22A16.1 16.1 0 0 1 21 40.93a16.09 16.09 0 0 1 1.76-27.68m-4.64-.16a19.3 19.3 0 0 0-2.86 3.55 26 26 0 0 1-2.67 2.43c.48-1 .5-2.17 1.18-3.08 1-1.69 2.76-2.28 4.35-2.9"/><path fill="#fff" d="M11.7 16.67a4 4 0 0 1 2.11-1.41c-1.58 1.09-1.48 3-2 4.65-.16.6-.44 1.15-.58 1.77h.05a5.5 5.5 0 0 1 1.29-1.92c1.13-1 2.79-1.68 3.34-3.21 0 2.13-1.8 3.8-3.5 5a7.2 7.2 0 0 0-1.77 2.11c0-.54.09-1.08.05-1.65-.19-1.86-.32-4 1-5.37"/><path fill="#fff" d="M8.5 23a7.36 7.36 0 0 1 1.84-4.83s.05-.05.09-.05c-1.21 1.85-.21 4.17-.26 6.27L10 26.58s0 .08.08.05q.09-.365.13-.74c.29-1.73 1.79-3 3.11-4.16.279-.293.505-.63.67-1a9 9 0 0 1-.73 2.53c-1 2-2.92 3.63-3.26 5.91C9.84 27 8.35 25.36 8.5 23"/><path fill="#fff" d="M7.58 25.72a8.5 8.5 0 0 1 .5-1.72c-.49 2.49 1.19 4.28 1.74 6.45q.235 1.233.61 2.43h.08c-.82-2.3.36-4.43 1.55-6.23a5.8 5.8 0 0 0 .6-1.58 13.5 13.5 0 0 1-.29 3.31c-.29 1.37-.72 2.67-1.09 4a6.3 6.3 0 0 0-.06 2.62l-.12-.1c-.87-1.63-2.59-2.9-3.1-4.64a9.8 9.8 0 0 1-.42-4.54"/><path fill="#fff" d="M7.5 30.59c.19 2.64 3 4 4.35 6.22a8 8 0 0 0 1 1.32c-.07-.28-.32-.52-.42-.81a5.73 5.73 0 0 1-.52-3.12c.13-1.35.69-2.6.48-4 1.16 2.5.81 5.61 1.45 8.32q.327.859.74 1.68C12.2 38.56 9 37 7.9 34.05a7.54 7.54 0 0 1-.4-3.46"/><path fill="#fff" d="M8.92 36.65c1.33 3 4.65 3.25 6.88 5.08.387.357.825.654 1.3.88A7.6 7.6 0 0 1 15.66 41c-1.3-1.81-.84-4.35-1.82-6.3a14.8 14.8 0 0 1 2.23 3.37c.8 2 1.1 4.18 2.95 5.67-2-.66-4.34-.47-6.1-1.7a8.42 8.42 0 0 1-4-5.39"/><path fill="#fff" d="M12.33 42.25c2.12 2.42 5.6 1.61 8.43 2.24a4 4 0 0 0 1.19.15c-.34-.21-.8-.19-1.17-.38-2.22-.79-2.55-3.19-3.76-4.8a33.6 33.6 0 0 1 4.26 3.73 7.4 7.4 0 0 0 3.54 1.57c-.31.11-.72.08-1.05.17-2.32.57-4.91 1.51-7.38.67a7.2 7.2 0 0 1-4.06-3.35"/><path fill="#fff" d="M41.18 47.88c-2.39.9-4.89 0-6.76-1.46-.76-.48-1.43-1.17-2.41-1.11a3.2 3.2 0 0 0-1 .1 18.3 18.3 0 0 1 5.05 3.5q-.419.454-.91.83a18.2 18.2 0 0 0-5-4.05 3.4 3.4 0 0 0-1 .44A15.2 15.2 0 0 0 25 49.8l-1-.79a17.6 17.6 0 0 1 5.08-3.62c-1.82-.57-3 1-4.39 1.73a6.45 6.45 0 0 1-5.87.87A6.33 6.33 0 0 1 16 46.06a6.2 6.2 0 0 0 5.55.48c2.34-1 4.77-2.3 7.58-1.68.45 0 .88.44 1.29.07a9 9 0 0 1 6.26.79l1.87.74a6.11 6.11 0 0 0 5.43-.59 6.4 6.4 0 0 1-2.87 2"/><path fill="#fff" d="M43.75 45.41c-2.69 1-5.4-.23-8-.65l-.49-.06a7.2 7.2 0 0 0 3.41-1.53A34.5 34.5 0 0 1 43 39.24c-1.19 1.52-1.31 3.69-3.28 4.67q-.779.365-1.6.62 1.05-.088 2.08-.31c2.64-.41 5.65 0 7.5-2.24a7.06 7.06 0 0 1-4 3.43"/><path fill="#fff" d="M45.24 42.67c-1.37.37-2.84.49-4.18.94 2.26-1.94 2.14-4.94 3.65-7.22q.657-1.013 1.43-1.94c-.91 1.84-.52 4.23-1.57 6a8.1 8.1 0 0 1-1.63 2 1.3 1.3 0 0 0 .58-.31c1.71-1.71 3.95-2.19 5.8-3.58a5.6 5.6 0 0 0 1.75-2.2c-.35 2.83-3.17 5.49-5.83 6.34"/><path fill="#fff" d="M48.63 37.84c-1.06.69-2.13 1.34-3.16 2.13v-.09c1.57-2.61.8-6.18 1.77-9l.36-1c-.2 1.78.57 3.29.52 5.08a5.7 5.7 0 0 1-1 2.89h.1q1.05-1.56 2.26-3c1.39-1.34 2.8-2.71 3-4.57.47 3.1-1.27 5.82-3.85 7.58"/><path fill="#0468b1" d="m36.62 37.63.11-.15a10.7 10.7 0 0 0 1.42-1.19h.06c-.1 0-.22.07-.33 0a.53.53 0 0 1-.214-.23.53.53 0 0 1-.046-.31l-1-1-.06-.15a1.2 1.2 0 0 1-.36.45c0 .13 0 .32.12.41.32.1.73.31.8.69-.13.35-.8.67-.39 1.05.14.19-.18.26-.13.42m-5.69-12.94c.19.1.29-.09.45-.13a1 1 0 0 1 .53.36c.14.06.28 0 .41-.07.08-.66.91-.57 1.16-1.19l-.15.06c-.07-.09-.22-.05-.22-.2q.208-.229.48-.38a8 8 0 0 0-2.27-1 7.4 7.4 0 0 1-1-.19q.103.821.11 1.65l.57.19c.18-.27.54-.33.7-.59.1-.09.22 0 .3.09.015.217-.016.435-.09.64-.22.43-.73.48-1 .8M39.42 30A10.5 10.5 0 0 1 38 33.09a3.3 3.3 0 0 1-.86 1l.72.64v-.16c0-.06 0-.2.16-.19.35 0 .36.37.56.56 0 .31.23.54.14.82a11.8 11.8 0 0 0 3.2-7.6l.11-.13c-.72.07-1.48 0-2.22 0l-.12-.03q.004.72-.11 1.43l.26.29a.28.28 0 0 1-.06.36.29.29 0 0 1-.36 0M37.5 23a9 9 0 0 0-1.07-1.42v.09c-.74.77-1.54 1.56-2.24 2.34a.43.43 0 0 0 .21.23c0-.19.14-.36.16-.55.19-.27.47-.1.72-.05q.57-.015 1.13.09c.29.14.32.51.58.65a.22.22 0 0 1-.08.3c.08.6.37-.16.67 0 .13.05.29 0 .38.16s.35.21.37.44-.15.15-.24.22c.08.24-.24.39-.13.65.46.08.48-.45.7-.69a4.4 4.4 0 0 0-.45-1.21c-.26 0-.42-.36-.69-.42-.51-.2.08-.52 0-.82m-7.14 16.63a15 15 0 0 1 1.92-.27.7.7 0 0 1-.36-.21c-.37 0-.55-.41-.67-.71s.09-.39.18-.57c-.16-.33-.65-.09-.94-.21-.08-.06-.14-.16-.25-.18l.12.18q.062 1 0 2m.51-6.25c.21 0 .06.26.21.34.33-.1.58.28.84 0 0-.37.41-.34.64-.44s.77-.5.73-1l-.06-.07c-.25 0-.37.19-.55.34s-.34-.24-.53-.15a.11.11 0 0 0 .09.07c0 .06.06.18 0 .23-.28.25-.4-.12-.66-.09v.09c0 .06 0 .15-.09.11-.17-.26-.49-.16-.65-.39-.1-.06-.2 0-.27.08s-.31 0-.25.19c-.2.07-.22.28-.37.41-.25 0-.36.24-.59.24 0 0 0 .12.07.13a.8.8 0 0 0 .47 0c.24-.38.63-.06 1-.2m2.33-3.01a.6.6 0 0 0 .13.38c.31-.05.18.38.46.35s0-.19.06-.29-.28-.27-.44-.41 0-.09 0-.13-.18 0-.25.1m-.32-11.02a14.5 14.5 0 0 0-2.57-.54l.08.18v2.16h.21a7 7 0 0 1 3.58 1.46l.06.17q.616-.745 1.32-1.41L36 21l-.19-.08a9.4 9.4 0 0 0-2.87-1.66M18 28.19l.17 1.47a11 11 0 0 1 .31 1.67c.08-.12 0-.36.25-.39-.09-.17.16-.32 0-.47a1.62 1.62 0 0 1 .45-1.06c.41 0 .44-.55.85-.57.21 0 .34.27.43.36a1.46 1.46 0 0 1-.12-1.2l-.18.08q-1.111.043-2.22-.05zm14.35 3.74c.19-.2.6-.2.61-.48-.28 0-.42.11-.61.26 0 .06-.11.17 0 .22m5.08-4.01.24.25c.25.16.09.52.35.67s.42.52.56.79q.042-.113.07-.23c.11-.44.09-.94.23-1.37a3.3 3.3 0 0 1-1.45-.11m-3.22 5.59c.27.07.46.41.8.31s.76.09 1-.21c0-.3.22-.51.35-.77h.09c.16.17.16.42.23.6.22-.24.4-.51.6-.75a7.3 7.3 0 0 0 1.12-2.49 2.7 2.7 0 0 0-.63.11c-.23 0-.51.12-.71 0s-.12 0-.11.1-.16.27-.35.22-.14-.22-.19-.33a.7.7 0 0 1 0 .25A3 3 0 0 0 36 31c-.17.18-.44.12-.61.27 0 .38-.46.3-.7.43 0 0 0 .05.06.09a.32.32 0 0 0 .35-.08c.33.09.26-.33.46-.48s.32-.17.49-.05c.167.231.239.518.2.8-.2.19-.1.5-.23.73 0 .26-.29.38-.25.65a.6.6 0 0 1-.44.13 7.7 7.7 0 0 0-2-.46.15.15 0 0 0-.09.16c.29.15.64.16.94.28m-4.73 7.04.08-.12-.24.06a12.56 12.56 0 0 1-8.14-3.51v.09l-1.64 1.66a16.2 16.2 0 0 0 8.5 4q.8.048 1.59.19l-.12-.19zm-3.22-8.61a6.14 6.14 0 0 0 2.88 1.33c.06-.22 0-.49.08-.67s.29-.17.46-.14a.14.14 0 0 0 .09-.21c-.23 0-.13-.3-.21-.44s.15-.07.12-.17.07-.27-.06-.41c0 0 .07-.07.11-.1-.48.2-1-.09-1.43-.28-.21-.12-.51-.24-.55-.5a13 13 0 0 1-1.49 1.59m-.82-2.49h-.27c0-.46-.51-.19-.7-.43.23.42.34.89.58 1.3s.46.66.6 1q.297-.422.67-.78a.44.44 0 0 0-.07-.32c-.07-.17 0-.4-.14-.55-.2.08.08.28 0 .4a.13.13 0 0 1-.118.003.13.13 0 0 1-.072-.093.55.55 0 0 1-.39-.36c.16-.1 0-.14-.08-.22m1.58.28c-.062.2-.176.379-.33.52.2-.14.33-.38.58-.4z"/><path fill="#0468b1" d="M29.26 37.4a9.25 9.25 0 0 1-5.15-1.93c.05.19.31.31.23.55s-.41.22-.63.22c-.46-.08-.8.27-1.22.32s-.53-.36-.89-.32a12.6 12.6 0 0 0 7.73 3.31l.22.15-.1-.27v-2.11zm-8.62-1.04a5 5 0 0 1-.74-.76 1.1 1.1 0 0 1-.67-.51c-.08-.09 0-.25-.1-.31l-.13.12c-.28.13-.38-.16-.58-.28s-.12-.6-.46-.52c-.13 0-.17-.15-.25-.22-.31 0-.39-.32-.56-.48 0 .07 0 .16-.09.21-.32.07-.43-.32-.65-.48-.06 0-.1.09-.18.07a1 1 0 0 1-.32-.67c-.27-.29-.15-.76-.1-1.12.05-.1.19-.15.16-.27s.25-.19.42-.2a.5.5 0 0 1 .16.16c.1-.07.33 0 .24-.23a1.06 1.06 0 0 1 .52-.19q.157.261.36.49L17.6 31a12.7 12.7 0 0 1-.38-2.43s-.1-.07 0-.11q-.018-.225 0-.45l-.22.08h-2.22a16.4 16.4 0 0 0 2 7 27 27 0 0 0 2.12 3l1.59-1.65zm2.56-18.63c-.5.34-.95.79-1.47 1.09q.871.678 1.62 1.49v.15A9.6 9.6 0 0 1 28.19 18c.412-.097.837-.13 1.26-.1a16 16 0 0 1 0-2.3 12.23 12.23 0 0 0-6.23 2.09m-1.92 8.37q-.046.604-.2 1.19a2 2 0 0 1 1 0c-.18-.1 0-.33-.13-.46s-.06-.44.13-.57c0-.33.33-.5.36-.79s.47-.11.66-.29 0-.17 0-.26c.16-.22.41-.21.6-.33.133-.223.314-.415.53-.56.49 0 .49-.65.95-.67a20 20 0 0 1-1.77-1.64 9.33 9.33 0 0 0-2.14 4.42m.31 3.2c0-.15-.19-.18-.17-.33s0-.77.4-.9a.9.9 0 0 1-.76-.07l.11.19c.105.516.145 1.044.12 1.57.09-.16.11-.36.3-.46m2.2 5.76-.03-.05.03.09zm-2.65-15.57-.87 1.1A12.7 12.7 0 0 0 18 27.21h2.19l.2.08c-.08-.06-.06-.15-.09-.23a9.62 9.62 0 0 1 2.54-6 16 16 0 0 1-1.68-1.68zm6.74 14.93a1.36 1.36 0 0 1 .6-.39c-.71.14-1.34-.37-1.94-.65a3.1 3.1 0 0 1-1-.85c-.46.594-.98 1.14-1.55 1.63.25 0 .38.29.59.41a9.9 9.9 0 0 0 4.08 1.82l-.38-.18c-.29-.32-.7-.71-.71-1.16.28-.1.25-.42.35-.63m-5.5-6.35-.07.42c-.09.25-.4.07-.54.24s0 .32.09.45c-.22.51.5.67.49 1.13.23.29 0 .71.29 1 .07.52-.07 1.22.39 1.63l.08.5c.09.34-.41.25-.35.55.1 0 .12.08.13.11A22.5 22.5 0 0 1 25 32l-.3-.31a7.7 7.7 0 0 1-1.23-2.73l-.23-.12a6 6 0 0 0-.11.71l-.13.05c-.17 0-.28-.14-.42-.23s-.12-.23 0-.3a.3.3 0 0 1 .19.05c.07-.08 0-.21.08-.32s-.15-.37 0-.54c.16 0 .27.17.33.27s.27-.07.4-.13.19-.32 0-.4a1.76 1.76 0 0 0 0-.94c-.09-.26-.38-.22-.6-.2-.65.21.11.7-.05 1.1-.1.23-.33 0-.5.11M42.88 28l-.13-.1.08.22a12.87 12.87 0 0 1-2.53 7.09 5.2 5.2 0 0 1-.94 1q.96.826 1.78 1.79l.06-.12a15.4 15.4 0 0 0 4-9.75l.1-.19-.12.06z"/><path fill="#0468b1" d="M21.26 18.26v-.11a12.65 12.65 0 0 1 8.15-3.43l-.07-.19v-1.92l.06-.22a15.4 15.4 0 0 0-8.58 3c-.49.33-.92.84-1.42 1.13h.07q.959.774 1.77 1.7m8.1.58A9.34 9.34 0 0 0 24 21.06a20 20 0 0 1 1.7 1.59q.067-.086.12-.18a7.3 7.3 0 0 1 2.43-1.25 3.5 3.5 0 0 1 1.21-.14c-.09-.784-.09-1.576 0-2.36zm.11 3.2a5.43 5.43 0 0 0-3.4 1.61h.17c.19.19.5.15.65.41s-.14.12-.13.24.1 0 .13.1.12-.09.17-.15.23.19.43.19a.29.29 0 0 1 .42.06c.13-.12.4 0 .44-.22.25-.26.11-.67.48-.84.12.07 0 .19 0 .31.24.1.52-.21.72 0a5.1 5.1 0 0 1-.08-1.71m.08 3.54a1.47 1.47 0 0 1-1 .6c-.1.13-.08.41-.33.38-.08.18-.35.28-.24.54q-.117.453-.14.92c-.47.29-.34-.4-.57-.54l-.09.14c-.09 0-.15 0-.22-.1s-.19-.05-.25 0-.27.32-.23.56-.28.09-.25.24q.406-.01.8-.11c.19 0 .34-.09.52-.09a.16.16 0 0 1 .11.19h.07a.34.34 0 0 0 .12-.39c0-.16.21-.16.32-.21s0 .15.05.23c.36.14-.08.4-.13.59s0 .49-.31.45a.12.12 0 0 1-.07-.14h-.05a.43.43 0 0 0 .22.36c.22-.18.23-.5.55-.54s-.07-.44.18-.58c.41 0 .85-.19 1.19.14 0 .15-.08.22 0 .33a1.8 1.8 0 0 1-.29.54.26.26 0 0 1-.09.3c-.1.49-.66.26-1 .42a2.48 2.48 0 0 0 1.76.48c.35 0 .19-.44.37-.63.11-.55.63-.17.94-.32.126-.234.214-.488.26-.75a.54.54 0 0 1-.21-.59c-.13-.19-.12-.52-.42-.56v-.19c0-.05.16-.23.21-.37-.18-.11-.13-.38-.12-.53-.31.09-.34-.32-.57-.41-.06-.18-.26-.21-.42-.24-.38.18-.44-.29-.73-.4 0-.09-.1-.22 0-.29s.33 0 .5 0l-.13-.07c-.13-.14-.41-.05-.58 0 .16.16.09.45.19.65m-12.22 1.68-.05-.31a12.94 12.94 0 0 1 2.39-6.84c.305-.45.665-.859 1.07-1.22-.52-.49-1.06-1.05-1.6-1.59l-.04-.22a15.78 15.78 0 0 0-4.09 8.72c-.09.48 0 1-.12 1.46q1.23-.09 2.46 0m21.58 9.54a4.2 4.2 0 0 1-1.1 1c-.52.52-1.36.63-1.63 1.39-.28.25-.37.65-.76.79-.15.39-.56.36-.79.64-.67.6-1.1-.38-1.7-.5l-1.23.22c-.41.07-.83.07-1.24 0q.09 1.255 0 2.51l.15-.1a15.58 15.58 0 0 0 10-4.21L38.86 37zm-8.49-22.26a.32.32 0 0 1 .07-.19c.11-.07.21 0 .25.11s.06.3 0 .37c.09 0 .14-.06.23-.06a12.1 12.1 0 0 1 5 1.53c.31-.16.71-.36 1-.09.39-.14.46.33.77.39a1.67 1.67 0 0 1 .85 1.08c.07.14.29.24.32.39a6.3 6.3 0 0 1 1.21-1.39l.27-.12a14.93 14.93 0 0 0-8.47-4 13 13 0 0 1-1.55-.19q.105 1.1 0 2.2m.05 3.4c.305-.05.615-.05.92 0a9.36 9.36 0 0 1 4.29 1.73 1.2 1.2 0 0 1-.37-.58.1.1 0 0 1 .1 0c0-.25-.25-.37-.29-.6a.19.19 0 0 1 .18-.07q.388.378.7.82c.18-.07.32 0 .45.14s.09.43.26.59c0 .47.61.73.58 1.2 0 .12.14 0 .19.08l.48.59a.23.23 0 0 0 .008.268.2.2 0 0 0 .072.062c.21.1.33-.17.55-.13s-.05.38 0 .57c.12 0 .27-.09.37 0s-.15.28-.22.4.15.13.27.17a.22.22 0 0 1 .2.29c.4.41-.12.86.07 1.3a.77.77 0 0 1-.21.78c0 .35-.31.57-.44.86l-.41.08c-.21.22.19.48 0 .62h.9l-.1-.09a1.31 1.31 0 0 1 .11-1.1c.14-.28.17-.63.42-.87.06 0 .16-.12.21 0a1.63 1.63 0 0 1-.13.82c.199.403.282.853.24 1.3.79-.05 1.57-.06 2.34-.06L42 27a11.4 11.4 0 0 0-1-4.13c-.17 0-.29.14-.48.09a.14.14 0 0 1-.09-.16q-.411-.526-.88-1c-.41 0-.59-.43-1-.48s-.1-.66-.57-.52a.76.76 0 0 1-.51-.53 1.33 1.33 0 0 0-.47-1.15c-.29-.1-.41.28-.7.22s-.08-.29-.13-.42-.19-.21-.17-.37c.37-.5-.45-.49-.27-1 0-.35-.41-.48-.59-.76a13 13 0 0 0-3.87-1.11c-.34.017-.678-.03-1-.14l.08.15v2.23"/><path fill="#0468b1" d="M39.07 18.76c.17 0 .22.24.33.36.58.31.73.94 1.24 1.29.29.6 1 1.06 1 1.75a12.75 12.75 0 0 1 1.21 4.95l-.06.1a.34.34 0 0 0 .19-.07h2.3c-.15-.23-.09-.55-.13-.82A15.8 15.8 0 0 0 40.93 17a19 19 0 0 1-1.59 1.71z"/><path fill="#fff" d="M30.66 14.13c.07-.13.25-.08.35 0l1.15-.5a1.64 1.64 0 0 1 1.25.48v.06a1 1 0 0 1-1 .27c-.53.1-1.27.4-1.69-.14 0 0-.06-.09 0-.13m6.8 1.41a.47.47 0 0 1 .36.29c0 .18.17.33 0 .47-.43.12-.47-.37-.8-.49a.3.3 0 0 1-.06-.23c.15-.18.29.12.46 0"/></svg>